<svg width="44" height="52" viewBox="0 0 44 52" fill="none" xmlns="http://www.w3.org/2000/svg">
<path d="M12.0565 27.5075C12.7481 22.9318 11.0455 13.5144 10.4071 14.1529C9.76861 14.7913 5.83137 18.835 4.82046 25.9114C4.18199 29.8486 11.4712 31.2852 12.0565 27.5075Z" fill="#C12A2E"/>
<path d="M14.7702 29.4229C14.5042 31.5512 17.6433 34.3179 20.3036 32.7217C27.5396 28.3588 26.1563 18.1433 26.1563 18.1433C16.3132 20.2715 14.8766 28.412 14.7702 29.4229Z" fill="#C12A2E"/>
<path d="M27.0079 39.3189C29.5618 38.3079 32.8074 35.8073 33.8715 30.0078C33.8715 30.0078 28.2849 29.2629 23.8688 32.9874C20.5168 35.7541 24.7201 40.2234 27.0079 39.3189Z" fill="#C12A2E"/>
<path d="M34.2433 39.3186C34.2433 39.3186 30.3061 39.3718 27.2201 41.5001C26.3688 42.0853 26.156 42.4578 26.3156 43.7347C26.3688 44.3732 27.5393 46.9803 29.3483 46.2886C33.4452 44.7988 34.2433 39.3186 34.2433 39.3186Z" fill="#C12A2E"/>
<path d="M17.2174 35.3284C12.1096 31.604 4.60758 31.1784 3.8095 32.1893C0.351116 36.8714 0.883176 46.5017 6.41658 50.2261C11.95 53.9505 21.261 51.3966 24.4002 46.3953C25.0386 45.3311 22.3251 39.1061 17.2174 35.3284Z" fill="#C12A2E"/>
<path d="M37.8614 35.1691L43.6077 23.251L34.0838 21.9208L35.1479 5.85264L22.3785 11.9181L20.9952 6.22508L15.8874 12.1841L9.92838 0L3.17123 14.3124L0.617352 14.3656C0.617352 14.3656 0.564147 20.5907 2.37315 24.2619C6.68282 11.9713 11.0457 11.6521 11.0457 11.6521C11.0457 11.6521 13.9188 13.0886 14.5041 23.4106C20.8356 15.0573 27.6459 16.0682 27.6459 16.0682C29.7742 22.5061 26.369 29.1568 26.369 29.1568C26.369 29.1568 32.3812 27.0818 35.7332 28.0927C35.7332 28.0927 36.957 30.9126 32.9133 37.6165L36.1057 37.9358C36.1057 37.9358 37.1166 43.1499 31.4235 47.1936C31.4235 47.1936 31.5832 47.1404 31.6896 47.1404C33.339 46.5551 39.0852 44.8525 43.5013 38.3082C43.5545 38.3082 37.8614 35.1691 37.8614 35.1691Z" fill="#C12A2E"/>
</svg>
