<svg width="65" height="52" viewBox="0 0 65 52" fill="none" xmlns="http://www.w3.org/2000/svg">
<path d="M17.2207 19.2561C15.3054 20.2396 13.1314 19.5149 13.9078 21.3266C14.736 22.776 16.0301 20.1361 25.7616 22.6725C31.0933 24.0183 33.4226 23.863 33.4226 23.863C33.4226 23.863 34.2509 17.3926 40.1001 18.3243C46.7258 19.4114 44.7588 25.9336 44.7588 25.9336C50.2458 27.9523 55.2668 26.2441 56.4056 25.5712C56.4056 25.5712 56.9232 20.2913 53.1445 16.875C52.1092 15.8914 50.7634 15.2185 49.6764 14.8562C49.4175 14.7527 50.9187 18.4796 51.0222 18.6867L50.9704 18.7384C50.8669 18.7384 50.7634 18.7384 50.7116 18.7384C49.9869 18.5831 49.107 18.2208 48.7964 16.9785C48.3305 15.2185 46.6741 10.1975 40.8766 11.4398C39.7895 11.6986 36.632 13.3033 36.4767 13.3033C36.5284 13.1997 37.0461 12.4751 37.2014 12.2162C37.8225 11.388 37.6155 10.2492 36.7873 9.78336C36.2696 9.47278 35.6485 9.42102 35.0273 9.57631C34.0438 9.83513 33.3191 10.4563 32.5944 11.1292C30.2133 13.1998 28.7639 12.7339 28.7639 12.7339C28.7639 12.7339 29.0745 8.74809 25.6064 8.0234C20.1194 7.09166 18.9806 10.1975 18.9806 12.3198C18.9806 16.5644 20.3265 17.8067 17.2207 19.2561Z" fill="#A721BB"/>
<path d="M16.3505 17.7697C17.6183 17.2446 18.2204 15.7911 17.6952 14.5233C17.17 13.2555 15.7166 12.6535 14.4488 13.1786C13.181 13.7038 12.5789 15.1572 13.1041 16.4251C13.6292 17.6929 15.0827 18.2949 16.3505 17.7697Z" fill="#A721BB"/>
<path d="M29.7477 7.76452C31.8918 7.76452 33.6299 6.02637 33.6299 3.88226C33.6299 1.73815 31.8918 0 29.7477 0C27.6036 0 25.8654 1.73815 25.8654 3.88226C25.8654 6.02637 27.6036 7.76452 29.7477 7.76452Z" fill="#A721BB"/>
<path d="M21.3615 27.6933C33.4741 28.9357 43.3609 32.2485 51.6949 32.3003C53.0407 32.3003 54.283 32.145 55.4218 31.8862C55.6806 32.9214 56.6124 33.6461 57.6994 33.6461C58.9935 33.6461 60.0288 32.6109 60.0288 31.3168C60.0288 30.9027 59.9253 30.4886 59.7182 30.178C62.7205 28.418 64.2734 26.1922 64.2734 26.1922C59.4076 27.6933 52.8337 31.0062 44.4997 28.7286C43.2574 28.3663 42.1704 27.7969 41.5492 27.2275C42.5327 26.5028 43.2057 25.364 43.2057 24.0181C43.2057 21.8441 41.4457 20.0841 39.2716 20.0841C37.0976 20.0841 35.3376 21.8441 35.3376 24.0181C35.3376 24.8463 35.5964 25.6228 36.0623 26.244C35.4411 26.5545 33.9918 26.7098 31.4036 26.1404C19.6533 23.5523 13.9593 21.43 3.60661 30.8509C3.55485 30.7474 9.24883 26.451 21.3615 27.6933Z" fill="#A721BB"/>
<path d="M44.9658 35.665C43.2058 35.3544 34.3025 33.8015 31.352 33.0768C30.0579 32.7663 28.8156 32.5074 27.625 32.2486C27.2109 30.5404 25.658 29.2463 23.7945 29.2463C22.4487 29.2463 21.2581 29.9193 20.5334 30.9545C14.6841 30.4369 9.35251 31.7827 0.708008 38.3567C0.708008 38.3567 8.62782 33.8015 20.1193 34.578C20.6887 36.0273 22.1381 37.1144 23.7945 37.1144C25.1404 37.1144 26.3309 36.4415 27.0038 35.458C31.8178 36.1826 36.2695 37.1661 40.3588 37.9426C40.2035 38.3049 40.1 38.719 40.1 39.1849C40.1 40.9966 41.5494 42.446 43.3611 42.446C45.1728 42.446 46.6222 40.9966 46.6222 39.1849C46.6222 39.1332 46.6222 39.0296 46.6222 38.9779C48.3822 39.1849 50.0903 39.3402 51.695 39.3402C60.0289 39.392 64.2735 33.1804 64.2735 33.1804C59.4595 34.6815 53.2997 37.2179 44.9658 35.665Z" fill="#A721BB"/>
<path d="M42.6361 44.1027C39.4785 43.7921 38.0291 40.738 38.0291 40.738C38.0291 40.738 26.227 37.8911 15.6155 37.8911C15.6155 37.8911 20.5848 50.7802 33.8363 51.4013C47.4501 52.0225 52.1605 41.3592 52.1605 41.3592H48.2265C48.2783 41.3074 46.5183 44.5168 42.6361 44.1027Z" fill="#A721BB"/>
</svg>
