<svg width="48" height="48" viewBox="0 0 48 48" fill="none" xmlns="http://www.w3.org/2000/svg">
<path d="M47.1689 20.6264C45.8897 29.314 38.428 36.0296 29.3673 36.0296C19.4005 36.0296 11.3525 27.9815 11.3525 18.0148C11.3525 8.95409 18.0148 1.49235 26.7557 0.213192C25.743 0.106596 24.7304 0 23.7177 0C10.6063 0 0 10.6063 0 23.6644C0 36.7224 10.6063 47.3288 23.6644 47.3288C36.7224 47.3288 47.3288 36.7224 47.3288 23.6644C47.3288 22.6517 47.2755 21.6391 47.1689 20.6264Z" fill="#777571"/>
<path d="M35.0701 13.9109C36.2427 18.8676 33.2047 23.8243 28.248 24.9969C23.7709 26.0628 19.2406 23.6111 17.5883 19.4539C17.6416 19.9868 17.7482 20.4665 17.8548 20.9995C19.4005 27.5019 25.9028 31.4993 32.4052 30.0069C38.9076 28.4613 42.905 21.9589 41.4126 15.4565C39.867 8.95412 33.3646 4.95676 26.8622 6.44911C26.3292 6.55571 25.8495 6.7156 25.3698 6.8755C29.7936 6.44911 34.0042 9.43381 35.0701 13.9109Z" fill="#777571"/>
<path d="M30.7038 18.0594C31.7514 15.5302 30.5504 12.6305 28.0212 11.5829C25.492 10.5352 22.5924 11.7363 21.5447 14.2655C20.4971 16.7947 21.6981 19.6943 24.2273 20.7419C26.7565 21.7896 29.6561 20.5886 30.7038 18.0594Z" fill="#777571"/>
</svg>
