<svg width="51" height="53" viewBox="0 0 51 53" fill="none" xmlns="http://www.w3.org/2000/svg">
<path d="M45.6954 20.7268L40.809 23.3579L43.4401 35.3321V35.5468V35.7079L43.7086 43.4401L50.3669 39.3056V26.1501L45.6954 20.7268Z" fill="#99724F"/>
<path d="M10.0948 16.3773L5.85285 19.8676L5.42329 23.4652L0 25.7204L1.12761 36.03L4.77893 28.9959L5.63807 28.5663L2.41632 40.9163L11.3835 46.0175L14.8738 21.4784L10.0948 16.3773Z" fill="#99724F"/>
<path d="M34.6876 4.67154L25.5056 0L19.3843 4.02719L16.6458 23.3577L13.263 47.0376V47.0913L13.9073 47.3598L21.371 50.5278L25.6667 52.2998L29.4791 50.4741L33.0768 38.1241L22.9282 23.7873L24.7002 11.2761L25.1835 11.4372L25.4519 23.4114L35.0635 36.6206L33.8285 48.4337L41.7218 44.6213L41.4533 35.7615L34.6876 4.67154Z" fill="#99724F"/>
</svg>
