<svg width="46" height="47" viewBox="0 0 46 47" fill="none" xmlns="http://www.w3.org/2000/svg">
<path d="M39.0835 21.4728C39.0835 21.4728 37.0896 25.205 32.9996 25.205C32.9996 25.205 42.3045 0.715761 14.5943 0C14.5943 0 24.4616 9.40714 13.9297 17.9451C13.9297 17.9451 13.4695 12.0657 9.53285 12.0146C9.53285 12.0146 10.1464 16.1557 3.09101 24.3359C-2.83958 31.2378 -1.30581 46.1154 17.2017 46.1154C17.2017 46.1154 0.841474 33.6408 20.8828 23.9269C20.8828 23.9269 15.7191 33.334 22.2632 39.2135C22.2632 39.2135 26.7111 36.2993 29.5742 30.5221C29.5742 30.5221 33.7153 41.2585 27.1712 46.1666C27.1712 46.1666 40.7196 46.4733 44.7585 36.4527C46.9569 30.9822 43.5315 22.6998 39.0835 21.4728Z" fill="#F7682A"/>
<path d="M41.4357 18.8136C38.9306 15.7972 41.1801 10.9402 41.3335 10.6335C38.1637 10.6335 36.6299 13.5477 37.0389 15.3882C37.6524 18.149 41.4357 18.8136 41.4357 18.8136Z" fill="#F7682A"/>
<path d="M14.7986 11.7586C14.7986 11.7586 16.7925 6.90169 13.0092 3.93639C10.504 1.94249 5.95385 3.47626 5.49371 7.05506C5.49371 7.05506 12.4979 5.52129 14.7986 11.7586Z" fill="#F7682A"/>
</svg>
