<svg width="54" height="54" viewBox="0 0 54 54" fill="none" xmlns="http://www.w3.org/2000/svg">
<path d="M27.5598 0.320312H26.7618C26.017 14.7903 14.7922 26.0151 0.322266 26.7067V27.5579C14.8454 28.1962 26.1234 39.4743 26.815 53.9442H27.613C28.2514 39.4743 39.5294 28.1962 53.9994 27.5047V26.6535C39.5294 25.9619 28.3046 14.7371 27.5598 0.320312ZM27.1874 36.0696L18.2501 27.1323L27.1874 18.1949L36.1247 27.1323L27.1874 36.0696Z" fill="#E7EAFF"/>
<path d="M13.7396 10.1618L10.1661 13.7354L13.7396 17.309L17.3132 13.7354L13.7396 10.1618Z" fill="#E7EAFF"/>
<path d="M40.546 10.1492L36.9724 13.7228L40.546 17.2964L44.1196 13.7228L40.546 10.1492Z" fill="#E7EAFF"/>
<path d="M13.7671 37.0688L10.1935 40.6424L13.7671 44.216L17.3406 40.6424L13.7671 37.0688Z" fill="#E7EAFF"/>
<path d="M40.5734 37.0558L36.9998 40.6294L40.5734 44.203L44.147 40.6294L40.5734 37.0558Z" fill="#E7EAFF"/>
<path d="M27.2245 22.5807L22.6729 27.1323L27.2245 31.6839L31.7761 27.1323L27.2245 22.5807Z" fill="#E7EAFF"/>
</svg>
