<svg width="47" height="51" viewBox="0 0 47 51" fill="none" xmlns="http://www.w3.org/2000/svg">
<path d="M23.2604 30.4937C26.0426 30.4937 28.2981 28.2382 28.2981 25.456C28.2981 22.6738 26.0426 20.4183 23.2604 20.4183C20.4782 20.4183 18.2227 22.6738 18.2227 25.456C18.2227 28.2382 20.4782 30.4937 23.2604 30.4937Z" fill="#73B7E2"/>
<path d="M23.2598 0L0.322266 12.8622V37.997L23.2598 50.9127L46.1973 38.0506V12.8622L23.2598 0ZM23.2598 46.1966L6.59257 36.4964L23.2598 42.5523L39.927 36.4964L23.2598 46.1966ZM12.7021 25.4564C12.7021 19.6148 17.4182 14.8987 23.2598 14.8987C29.1014 14.8987 33.8711 19.6148 33.8711 25.4564C33.8711 31.2979 29.1549 36.014 23.3134 36.014C17.4718 36.014 12.7021 31.2979 12.7021 25.4564ZM23.2598 8.414L6.59257 14.4163L23.2598 4.71613L39.927 14.4163L23.2598 8.414Z" fill="#73B7E2"/>
</svg>
