<svg width="53" height="49" viewBox="0 0 53 49" fill="none" xmlns="http://www.w3.org/2000/svg">
<path d="M34.8886 36.8246C34.8886 31.2317 26.2583 21.7781 26.2583 21.7286C26.2583 21.7286 17.6279 31.2317 17.6279 36.8246C17.6279 41.3781 18.7431 45.1398 25.0946 49.0004L25.9189 32.9145H26.7916L27.5673 49.0004C33.9189 45.1398 34.8886 41.3781 34.8886 36.8246Z" fill="#4BCE59"/>
<path d="M15.9793 31.1322C15.7369 28.6574 15.3975 26.2816 12.7308 22.718L13.4581 22.124C15.9793 25.5392 17.1429 27.618 17.7248 29.9443C18.4036 28.7069 19.2278 27.3705 20.1975 25.9847C20.4399 25.6382 20.6823 25.2917 20.9248 24.9948C20.2945 23.0645 17.1914 15.5907 7.83383 11.2351C7.83383 11.2351 5.0217 17.8675 5.21564 27.222C5.21564 27.1725 11.2278 28.4099 15.9793 31.1322Z" fill="#4BCE59"/>
<path d="M7.20312 37.4676L7.591 36.9727C8.75464 38.5565 12.391 41.5262 16.7062 43.1596C15.7365 40.8333 15.591 38.606 15.591 36.8242C15.591 35.8838 15.785 34.8444 16.1243 33.6565C15.0092 32.8151 10.1607 29.4989 0.0273438 28.8555C0.0273438 28.8555 2.30614 39.9919 6.08796 43.3081C9.28797 46.1293 14.4274 46.4757 17.6274 45.6838C12.1001 44.0505 8.60918 39.4474 7.20312 37.4676Z" fill="#4BCE59"/>
<path d="M32.2702 25.9348C33.1914 27.2217 33.9672 28.4591 34.5975 29.647C35.2278 27.4692 36.3914 25.3904 38.8157 22.1237L39.5429 22.7177C36.8763 26.3308 36.5369 28.6571 36.2944 31.1318C41.046 28.3601 47.0581 27.1722 47.0581 27.1722C47.252 17.8176 44.4399 11.1853 44.4399 11.1853C35.3732 15.3924 32.1732 22.5197 31.3975 24.7469C31.6884 25.1429 31.9793 25.5389 32.2702 25.9348Z" fill="#4BCE59"/>
<path d="M36.3907 33.5579C36.7786 34.7458 36.9725 35.8346 36.9725 36.8245C36.9725 38.7054 36.827 40.8336 35.9543 43.0609C40.124 41.4276 43.6149 38.6064 44.7786 37.0225L45.1665 37.5175C43.7119 39.4973 40.221 44.1003 34.7422 45.7337C37.9422 46.5256 43.0331 46.1791 46.2816 43.3579C50.0634 40.0417 52.3422 28.9053 52.3422 28.9053C42.6452 29.4993 37.7483 32.5185 36.3907 33.5579Z" fill="#4BCE59"/>
<path d="M22.4758 23.0152C23.7365 21.4314 24.7062 20.392 24.7546 20.293L24.9486 20.095L25.2395 19.699L26.0152 12.2748H26.5001L27.2759 19.699L27.5183 20.0455L27.7607 20.293C27.8092 20.3425 28.7304 21.3819 29.991 22.9657C30.8637 20.7879 34.888 14.7 36.391 13.9081L26.2092 0L16.0273 13.9081C17.5789 14.7 21.6516 20.8869 22.4758 23.0152Z" fill="#4BCE59"/>
</svg>
