<svg width="46" height="53" viewBox="0 0 46 53" fill="none" xmlns="http://www.w3.org/2000/svg">
<path d="M45.1494 33.9691C44.7492 34.1205 44.2989 34.3224 43.9486 34.5243C42.8979 35.1805 42.0974 36.1395 41.547 37.1995C41.0967 38.108 40.3962 39.6222 39.7458 40.3793C39.4456 40.7327 35.7931 43.004 35.7931 43.004C35.7931 43.004 39.6958 37.6033 40.5964 30.234C42.0473 17.9688 33.8919 12.8709 30.9399 12.8709C28.0379 12.8709 28.6884 14.1328 26.637 13.9813C15.9298 13.3757 17.0305 0 17.0305 0C17.0305 0 9.92572 12.5681 20.2827 16.4041C25.5362 18.3221 35.1927 20.0887 35.1927 27.357C35.3428 28.2655 32.8912 34.272 33.5917 36.9976C34.1921 39.2689 29.1387 40.5812 28.5382 41.4393C27.0372 42.4993 27.9879 45.6287 24.8358 45.3258C24.3354 45.2753 23.2347 44.5182 20.6329 44.7201C18.0312 44.922 15.3294 43.963 14.4288 43.7611C8.92505 42.2469 7.42404 37.048 8.12451 34.3729C8.77495 31.9502 8.72491 29.9312 8.72491 29.4769C9.02512 25.9437 16.0298 23.6724 21.8838 25.7923C22.4842 26.297 25.236 28.1141 24.6857 32.3035C24.5856 33.2625 24.3855 35.0291 23.8351 35.8367C23.4849 36.3414 22.9345 36.7452 22.284 36.9976C22.9845 36.089 23.3848 34.9281 23.3348 33.6663C23.2847 32.7577 22.9845 31.9502 22.5842 31.2435C22.0339 30.0321 21.0832 29.275 19.7824 28.9217C18.6316 28.6189 17.4808 28.6693 16.33 28.9722C14.3787 29.5274 13.0278 30.7892 12.3774 32.6568C11.7269 34.5243 12.1272 36.1395 13.1779 37.7042C14.1286 39.2184 16.3801 41.1365 20.3828 40.7831C24.3855 40.4298 27.4875 39.7232 29.0886 34.1205C29.689 32.0511 29.0886 29.0731 28.5883 27.7608C28.138 26.398 27.4875 25.1866 26.5369 24.0762C25.4862 22.8143 24.1853 21.8048 22.8344 20.9468C21.8337 20.3411 20.783 19.8868 19.6323 19.584C17.781 19.1297 13.378 18.8773 11.4768 19.0288C0.969694 20.9973 3.52141 24.8838 3.17118 25.4895C2.1705 27.3065 1.31993 29.1741 0.819594 31.193C0.369291 32.9596 0.219189 34.7262 0.469358 36.4928C0.569425 37.149 0.869627 37.7547 0.969694 38.3604C1.16983 39.6222 1.06976 40.8336 0.419325 41.9945C0.269224 42.2469 0.169156 42.4488 0.0690885 42.7012C-0.131046 43.2059 0.119123 43.6602 0.61946 43.8116C1.47003 44.064 2.27057 43.8621 3.02108 43.4078C3.92168 42.9031 3.77158 42.0955 4.17185 41.1365C4.37199 40.6822 4.42202 40.4803 4.62215 39.9755C4.67219 40.026 4.72222 40.0765 4.72222 40.0765C4.72222 40.127 4.77225 40.1774 4.77225 40.2279C4.97239 41.1365 5.47273 41.6917 5.97306 42.4488C6.6235 43.3573 6.7736 44.3163 6.42337 45.4268C6.27326 45.9315 6.1732 46.4867 6.12316 46.9915C5.02242 53.4017 17.2306 49.818 17.9811 50.2218C18.3314 50.4237 18.7316 50.6256 19.0319 50.9284C20.0325 51.837 21.0332 52.695 22.4341 52.8969C23.735 53.0988 25.0359 53.0484 26.2367 52.3417C26.9372 51.8875 27.5876 51.3322 28.238 50.8275C33.2414 47.7486 35.3428 49.8685 38.595 47.3448C40.1961 46.2343 41.1467 45.4268 42.1974 43.7611C43.2481 42.0955 44.0487 40.3289 44.1988 38.3604C44.2989 37.149 44.7992 36.0386 45.6498 35.1805C45.8999 34.9281 46 34.6253 46 34.272C45.8999 34.0701 45.5997 33.8177 45.1494 33.9691Z" fill="#DBC7B7"/>
</svg>
