<svg width="44" height="48" viewBox="0 0 44 48" fill="none" xmlns="http://www.w3.org/2000/svg">
<path d="M23.3658 45.4026C27.6989 45.4026 31.2117 41.8899 31.2117 37.5567C31.2117 33.2235 27.6989 29.7108 23.3658 29.7108C19.0326 29.7108 15.5198 33.2235 15.5198 37.5567C15.5198 41.8899 19.0326 45.4026 23.3658 45.4026Z" fill="#2CB6E1"/>
<path d="M29.3033 28.5973C29.3033 28.5973 24.4261 21.2285 12.9753 21.2285C6.03065 21.2285 1.36552 26.6888 0.994429 30.3467C0.676351 33.4215 2.00167 36.1782 6.08367 36.6023C10.5898 37.0794 11.597 33.7926 13.9296 30.5588C19.708 22.6069 29.3033 28.5973 29.3033 28.5973Z" fill="#2CB6E1"/>
<path d="M37.3606 6.96801C29.0375 -2.5213 18.806 -1.24899 15.5723 4.42339C10.6951 13.0645 19.6012 18.1007 22.1459 19.108C24.6905 20.1152 30.6279 21.9177 33.7557 29.7636C38.8979 42.6987 28.0303 48 28.0303 48C37.6256 46.6747 41.3895 34.4817 41.3895 34.4817C45.5245 20.9634 41.3365 11.4741 37.3606 6.96801Z" fill="#2CB6E1"/>
</svg>
