<svg width="45" height="49" viewBox="0 0 45 49" fill="none" xmlns="http://www.w3.org/2000/svg">
<path d="M16.824 40.3813C9.13861 42.1959 5.93636 48.1735 5.93636 48.1735C6.68356 47.4797 11.9139 44.9179 16.0235 44.651C20.133 44.3842 27.0712 44.8111 31.2875 43.6903C35.7173 42.5162 39.8802 38.0864 41.9617 33.5499C41.9617 33.5499 36.7313 38.3532 30.0066 39.5808C24.8296 40.4881 22.1077 39.1538 16.824 40.3813Z" fill="#86FEE5"/>
<path d="M36.7309 33.3364C40.7871 30.4544 43.4023 26.6117 44.4697 22.4488C44.4697 22.4488 38.4922 28.6398 30.7 29.3336C25.3629 29.814 19.0652 28.5331 13.4612 31.3617C2.94719 36.5921 3.1073 45.6651 3.1073 45.6651C3.1073 45.6651 8.17753 37.0724 20.3461 36.2718C28.5118 35.7381 32.4079 36.432 36.7309 33.3364Z" fill="#86FEE5"/>
<path d="M14.262 26.9853C20.9867 25.2241 28.4052 26.8252 35.1833 24.4235C40.3603 22.6089 44.8968 18.0724 44.4165 10.6539C44.0963 5.53026 39.2395 -0.500645 31.3406 0.0330634C24.4558 0.46003 20.453 5.79712 21.467 11.4011C22.6946 18.2859 30.2198 18.2859 33.3687 16.8449C35.3434 16.1511 36.6777 14.2297 36.5176 12.0415C36.3041 9.10611 34.0625 7.39824 31.4474 7.55836C28.8322 7.71847 26.8041 10.0134 26.9642 12.6286C27.0176 13.6426 27.3912 14.5499 27.9783 15.2971C26.0035 14.6567 24.5092 13.3224 24.349 11.0275C24.1356 6.59768 27.3912 4.08925 31.3406 3.82239C35.6103 3.55554 39.88 6.54431 40.2002 11.2943C40.5204 16.0443 36.7845 19.887 32.2479 20.5808C25.3631 21.5949 21.3603 19.6202 14.9024 21.1146C3.16082 23.7831 0.8125 39.741 0.8125 39.741C0.8125 39.741 6.09622 29.1202 14.262 26.9853Z" fill="#86FEE5"/>
</svg>
